#N canvas 84 97 1169 659 12;
#N canvas 865 365 706 480 myCounter 1;
#X obj 226 70 inlet;
#X obj 287 319 outlet;
#X obj 377 71 inlet;
#X obj 287 222 f;
#X obj 287 184 metro 250;
#X obj 327 221 + 1;
#X obj 287 264 mod 16;
#X obj 298 70 inlet;
#X obj 367 143 f;
#X obj 360 183 f;
#X obj 360 222 t b f;
#X text 198 46 BANG/STOP;
#X text 298 47 STEPS;
#X text 354 34 mili sec per note;
#X text 340 319 Output numbers from 0 to [STEPS-1];
#X connect 0 0 4 0;
#X connect 2 0 8 0;
#X connect 3 0 5 0;
#X connect 3 0 6 0;
#X connect 4 0 3 0;
#X connect 5 0 3 1;
#X connect 6 0 1 0;
#X connect 7 0 9 1;
#X connect 8 0 4 1;
#X connect 9 0 10 0;
#X connect 10 0 6 0;
#X connect 10 1 6 1;
#X restore 332 201 pd myCounter;
#X text 833 69 <= Click to start;
#X text 834 148 <= Click to stop;
#X msg 722 55 \; pd dsp 1 \; kickMetros 1 \;;
#X msg 720 126 \; pd dsp 0 \; kickMetros 0 \;;
#X obj 429 347 sel 0 1 2 3 4 5 6 7 8 9 10 11 12 13 14 15;
#X obj 429 326 hradio 15 1 0 16 empty empty empty 0 -8 0 10 -262144
-1 -1 11;
#X connect 6 0 5 0;
