#N canvas 159 16 1703 937 12;
#X text 748 402 <= Click to start;
#X text 750 472 <= Click to stop;
#X obj 247 360 sel 0 1 2 3 4 5 6 7 8 9 10 11 12 13 14 15;
#X obj 247 339 hradio 15 1 0 16 empty empty empty 0 -8 0 10 -262144
-1 -1 0;
#N canvas 970 345 849 561 myModPeriodCounter 1;
#X obj 287 31 inlet;
#X obj 287 319 outlet;
#X obj 436 31 inlet;
#X obj 287 189 metro 250;
#X obj 319 221 + 1;
#X obj 287 293 mod 16;
#X obj 342 31 inlet;
#X text 259 12 BANG/STOP;
#X text 342 12 steps;
#X obj 431 297 outlet;
#X text 375 316 complete count;
#X text 394 12 period [ms];
#X obj 426 134 i;
#X floatatom 479 175 5 0 0 0 - - -;
#X floatatom 314 123 5 0 0 0 - - -;
#X obj 287 221 i;
#X text 91 354 Output numbers from 0 to [steps-1];
#X obj 394 203 t b f;
#X obj 394 80 t b f;
#X obj 342 80 t f b;
#X text 266 338 mod count;
#X connect 0 0 3 0;
#X connect 2 0 18 0;
#X connect 3 0 15 0;
#X connect 4 0 15 1;
#X connect 5 0 1 0;
#X connect 6 0 19 0;
#X connect 12 0 3 1;
#X connect 12 0 13 0;
#X connect 15 0 4 0;
#X connect 15 0 5 0;
#X connect 15 0 9 0;
#X connect 17 0 5 0;
#X connect 17 1 5 1;
#X connect 18 0 17 0;
#X connect 18 1 12 0;
#X connect 19 0 17 0;
#X connect 19 0 14 0;
#X connect 19 1 12 0;
#X restore 247 315 pd myModPeriodCounter;
#N canvas 1066 124 693 760 myBmpToMilisecond 1;
#X obj 231 166 vradio 20 1 1 4 empty empty empty 0 -8 0 10 -262144
-1 -1 2;
#X obj 150 282 t b f;
#X obj 199 138 t b f;
#X floatatom 169 428 5 0 0 0 - - -;
#X floatatom 150 374 5 0 0 0 - - -;
#X obj 231 254 sel 0 1 2 3;
#X msg 150 305 60000;
#X obj 150 328 /;
#X obj 150 351 i;
#X msg 255 339 1;
#X msg 268 364 1.5;
#X msg 243 315 0.5;
#X msg 231 291 0.25;
#X obj 169 404 *;
#X obj 169 451 outlet;
#X obj 150 94 inlet;
#X obj 322 94 inlet;
#X obj 150 259 i;
#X obj 72 178 bng 15 250 50 0 empty empty empty 17 7 0 10 -262144 -1
-1;
#X text 164 75 BPM;
#X text 335 187 1/8;
#X text 328 168 1/16;
#X text 307 207 quarter;
#X text 258 228 dotted quarter;
#X text 372 291 1/16;
#X text 379 315 1/8;
#X text 352 339 quarter;
#X text 303 364 dotted quarter;
#X text 113 473 Result (in ms);
#X text 231 75 Note value (in ms);
#X connect 0 0 5 0;
#X connect 1 0 6 0;
#X connect 1 1 7 1;
#X connect 2 0 17 0;
#X connect 2 1 0 0;
#X connect 3 0 14 0;
#X connect 4 0 13 0;
#X connect 5 0 12 0;
#X connect 5 1 11 0;
#X connect 5 2 9 0;
#X connect 5 3 10 0;
#X connect 6 0 7 0;
#X connect 7 0 8 0;
#X connect 8 0 4 0;
#X connect 9 0 13 1;
#X connect 10 0 13 1;
#X connect 11 0 13 1;
#X connect 12 0 13 1;
#X connect 13 0 3 0;
#X connect 15 0 17 0;
#X connect 16 0 2 0;
#X connect 17 0 1 0;
#X restore 428 285 pd myBmpToMilisecond;
#X obj 319 56 hradio 30 1 1 16 empty empty Number_of_Steps 0 -12 0
16 -262144 -1 -4160 7;
#X obj 701 186 vradio 20 1 1 4 empty empty Sequence_of: -100 -16 1
16 -262144 -33289 -99865 2;
#X obj 428 158 nbx 4 30 -1e+037 1e+037 0 1 empty empty BPM 0 -18 0
30 -262144 -1 -1 185 256;
#X text 233 273 trigger point;
#X obj 326 502 random 60;
#X obj 463 451 + 36;
#X obj 294 451 + 18;
#X obj 495 500 random 76;
#X obj 294 529 +;
#X obj 463 529 +;
#X floatatom 417 669 5 0 0 0 - - -;
#X obj 294 478 t f b;
#X obj 463 476 t f b;
#X floatatom 537 320 5 0 0 0 - - -;
#X text 657 187 1/16s;
#X text 664 208 1/8s;
#X text 636 228 quarters;
#X text 587 249 dotted quarters;
#X obj 294 643 f;
#X obj 463 642 f;
#X obj 440 746 print Rx1;
#X obj 531 747 print Rx2;
#X obj 265 746 print Lx1;
#X obj 368 746 print Lx2;
#X floatatom 321 643 0 0 0 0 - - -;
#X floatatom 347 643 0 0 0 0 - - -;
#X floatatom 490 642 0 0 0 0 - - -;
#X floatatom 516 642 0 0 0 0 - - -;
#X obj 294 670 makenote;
#X obj 463 670 makenote;
#X obj 289 720 noteout 1;
#X obj 458 722 noteout 2;
#X obj 294 556 t b f;
#X obj 463 554 t b f;
#X floatatom 249 670 5 0 0 0 - - -;
#X msg 651 390 \; pd dsp 1 \; kickInits 1 \;;
#X msg 651 457 \; pd dsp 0 \; kickInits 0 \;;
#X obj 247 291 r kickInits;
#X text 345 558 trigger point;
#X obj 359 576 r kickInits;
#X text 532 554 trigger point;
#X obj 546 572 r kickInits;
#X msg 347 604 50;
#X msg 515 607 50;
#X floatatom 337 192 5 0 0 0 - - -;
#X floatatom 453 205 5 0 0 0 - - -;
#X floatatom 716 291 5 0 0 0 - - -;
#X obj 319 150 + 1;
#X connect 2 0 12 0;
#X connect 2 0 11 0;
#X connect 2 2 12 0;
#X connect 2 2 11 0;
#X connect 2 3 12 0;
#X connect 2 4 11 0;
#X connect 2 4 12 0;
#X connect 2 5 12 0;
#X connect 2 6 12 0;
#X connect 2 8 11 0;
#X connect 2 8 12 0;
#X connect 2 9 11 0;
#X connect 2 12 11 0;
#X connect 2 13 11 0;
#X connect 2 13 12 0;
#X connect 2 15 11 0;
#X connect 2 16 11 0;
#X connect 3 0 2 0;
#X connect 4 0 3 0;
#X connect 5 0 4 2;
#X connect 5 0 19 0;
#X connect 6 0 53 0;
#X connect 7 0 5 1;
#X connect 7 0 52 0;
#X connect 8 0 5 0;
#X connect 8 0 51 0;
#X connect 10 0 14 1;
#X connect 11 0 18 0;
#X connect 12 0 17 0;
#X connect 13 0 15 1;
#X connect 14 0 38 0;
#X connect 15 0 39 0;
#X connect 17 0 14 0;
#X connect 17 1 10 0;
#X connect 18 0 15 0;
#X connect 18 1 13 0;
#X connect 24 0 34 0;
#X connect 24 0 40 0;
#X connect 25 0 35 0;
#X connect 25 0 16 0;
#X connect 30 0 34 1;
#X connect 31 0 34 2;
#X connect 32 0 35 1;
#X connect 33 0 35 2;
#X connect 34 0 28 0;
#X connect 34 0 36 0;
#X connect 34 1 29 0;
#X connect 34 1 36 1;
#X connect 35 0 26 0;
#X connect 35 0 37 0;
#X connect 35 1 27 0;
#X connect 35 1 37 1;
#X connect 38 0 24 0;
#X connect 38 1 24 1;
#X connect 39 0 25 0;
#X connect 39 1 25 1;
#X connect 43 0 4 0;
#X connect 45 0 48 0;
#X connect 47 0 49 0;
#X connect 48 0 30 0;
#X connect 48 0 31 0;
#X connect 49 0 32 0;
#X connect 49 0 33 0;
#X connect 53 0 4 1;
#X connect 53 0 50 0;
