#N canvas 1074 246 797 680 12;
#X obj 102 3 bng 15 250 50 0 empty empty empty 17 7 0 10 -262144 -1
-1;
#X obj 100 42 t b b b;
#X obj 115 105 /;
#X obj 115 129 i;
#X obj 61 168 metro;
#X msg 44 5 stop;
#X msg 115 81 60000;
#X obj 227 6 loadbang;
#X floatatom 183 82 5 0 0 0 - - -;
#X msg 202 44 60;
#X floatatom 86 229 5 0 0 0 - - -;
#X floatatom 86 276 5 0 0 0 - - -;
#X obj 86 205 i;
#X obj 133 203 + 1;
#X obj 86 252 % 16;
#X floatatom 26 205 5 0 0 0 - - -;
#X msg 146 163 0;
#X msg 144 7 start;
#X connect 0 0 1 0;
#X connect 1 0 4 0;
#X connect 1 1 6 0;
#X connect 1 2 8 0;
#X connect 2 0 3 0;
#X connect 3 0 4 1;
#X connect 4 0 12 0;
#X connect 4 0 15 0;
#X connect 5 0 4 0;
#X connect 6 0 2 0;
#X connect 7 0 9 0;
#X connect 8 0 2 1;
#X connect 9 0 8 0;
#X connect 10 0 14 0;
#X connect 12 0 10 0;
#X connect 12 0 13 0;
#X connect 13 0 12 1;
#X connect 14 0 11 0;
#X connect 16 0 12 1;
#X connect 17 0 1 0;
