#N canvas 205 255 1125 654 12;
#X obj 137 21 bng 15 250 50 0 empty empty empty 17 7 0 10 -262144 -1
-1;
#X obj 137 60 t b b b;
#X obj 137 125 makenote 80 500;
#X msg 137 92 60;
#X msg 174 92 64;
#X msg 214 93 67;
#X msg 66 77 60 64 67;
#X obj 216 163 noteout;
#X obj 380 30 inlet;
#X obj 380 227 noteout;
#X obj 738 37 loadbang;
#X obj 380 124 metro;
#X obj 380 201 makenote;
#X floatatom 480 128 0 0 0 0 - - -;
#X obj 380 175 f;
#X floatatom 432 88 0 0 0 0 - - -;
#X floatatom 515 128 0 0 0 0 - - -;
#X floatatom 564 129 0 0 0 0 - - -;
#X msg 613 86 500;
#X msg 651 90 60;
#X msg 689 98 64;
#X msg 732 107 250;
#X text 428 110 rate;
#X text 471 110 pitch;
#X text 516 110 vel;
#X text 552 111 length;
#X floatatom 520 175 0 0 0 0 - - -;
#X obj 514 222 ctlout 1;
#X obj 380 73 tgl 15 0 empty empty empty 17 7 0 10 -262144 -1 -1 0
1;
#X connect 0 0 1 0;
#X connect 0 0 6 0;
#X connect 1 0 3 0;
#X connect 1 1 4 0;
#X connect 1 2 5 0;
#X connect 2 0 7 0;
#X connect 2 1 7 1;
#X connect 3 0 2 0;
#X connect 4 0 2 1;
#X connect 5 0 2 2;
#X connect 6 0 2 0;
#X connect 8 0 28 0;
#X connect 10 0 18 0;
#X connect 10 0 19 0;
#X connect 10 0 20 0;
#X connect 10 0 21 0;
#X connect 11 0 14 0;
#X connect 12 0 9 0;
#X connect 12 1 9 1;
#X connect 13 0 14 1;
#X connect 14 0 12 0;
#X connect 15 0 11 1;
#X connect 16 0 12 1;
#X connect 17 0 12 2;
#X connect 18 0 15 0;
#X connect 19 0 13 0;
#X connect 20 0 16 0;
#X connect 21 0 17 0;
#X connect 26 0 27 0;
#X connect 26 0 27 1;
#X connect 28 0 11 0;
