#N canvas 962 327 917 659 12;
#X text 867 69 <= Click to start;
#X text 869 139 <= Click to stop;
#X obj 429 347 sel 0 1 2 3 4 5 6 7 8 9 10 11 12 13 14 15;
#X obj 429 326 hradio 15 1 0 16 empty empty empty 0 -8 0 10 -262144
-1 -1 11;
#N canvas 994 341 849 561 myModPeriodCounter 1;
#X obj 253 69 inlet;
#X obj 287 319 outlet;
#X obj 367 69 inlet;
#X obj 287 222 f;
#X obj 287 179 metro 250;
#X obj 327 221 + 1;
#X obj 287 293 mod 16;
#X obj 310 69 inlet;
#X text 225 47 BANG/STOP;
#X text 310 48 steps;
#X text 84 343 Output numbers from 0 to [steps-1];
#X obj 374 317 outlet;
#X text 425 315 complete count;
#X text 360 35 period [ms];
#X obj 360 178 i;
#X obj 367 134 i;
#X obj 360 222 t b i;
#X msg 548 120;
#X floatatom 423 173 5 0 0 0 - - -;
#X floatatom 424 218 5 0 0 0 - - -;
#X connect 0 0 4 0;
#X connect 2 0 15 0;
#X connect 3 0 5 0;
#X connect 3 0 6 0;
#X connect 3 0 11 0;
#X connect 4 0 3 0;
#X connect 5 0 3 1;
#X connect 6 0 1 0;
#X connect 7 0 14 1;
#X connect 14 0 16 0;
#X connect 14 0 19 0;
#X connect 15 0 4 1;
#X connect 15 0 18 0;
#X connect 16 0 6 0;
#X connect 16 1 6 1;
#X restore 429 299 pd myModPeriodCounter;
#X msg 722 55 \; pd dsp 1 \; kickMetronomes 1 \;;
#X msg 723 123 \; pd dsp 0 \; kickMetronomes 0 \;;
#N canvas 1206 165 693 760 myBmpToMilisecond 1;
#X obj 211 131 vradio 20 1 1 4 empty empty empty 0 -8 0 10 -262144
-1 -1 0;
#X obj 150 282 t b f;
#X obj 211 228 t b f;
#X floatatom 169 428 5 0 0 0 - - -;
#X floatatom 150 374 5 0 0 0 - - -;
#X obj 211 254 sel 0 1 2 3;
#X msg 150 305 60000;
#X obj 150 328 /;
#X obj 150 351 i;
#X msg 235 339 1;
#X msg 248 364 1.5;
#X msg 223 315 0.5;
#X msg 211 291 0.25;
#X obj 169 404 *;
#X obj 169 451 outlet;
#X obj 150 95 inlet;
#X obj 211 95 inlet;
#X obj 150 259 i;
#X obj 150 222 bng 15 250 50 0 empty empty empty 17 7 0 10 -262144
-1 -1;
#X text 164 76 BPM;
#X text 315 152 1/8;
#X text 308 133 1/16;
#X text 287 172 quarter;
#X text 238 193 dotted quarter;
#X text 349 291 1/16;
#X text 356 315 1/8;
#X text 329 339 quarter;
#X text 280 364 dotted quarter;
#X text 220 438 Result (in ms);
#X text 190 48 Note value (in ms);
#X connect 0 0 2 0;
#X connect 1 0 6 0;
#X connect 1 1 7 1;
#X connect 2 0 17 0;
#X connect 2 1 5 0;
#X connect 3 0 14 0;
#X connect 4 0 13 0;
#X connect 5 0 12 0;
#X connect 5 1 11 0;
#X connect 5 2 9 0;
#X connect 5 3 10 0;
#X connect 6 0 7 0;
#X connect 7 0 8 0;
#X connect 8 0 4 0;
#X connect 9 0 13 1;
#X connect 10 0 13 1;
#X connect 11 0 13 1;
#X connect 12 0 13 1;
#X connect 13 0 3 0;
#X connect 15 0 18 0;
#X connect 15 0 17 1;
#X connect 16 0 0 0;
#X connect 17 0 1 0;
#X connect 18 0 17 0;
#X restore 884 309 pd myBmpToMilisecond;
#X connect 3 0 2 0;
#X connect 4 0 3 0;
