#N canvas 0 2 1574 971 12;
#X floatatom 484 42 0 0 0 0 - - -;
#X obj 497 120 sig~;
#X obj 507 269 dac~;
#X obj 491 184 osc~;
#X floatatom 594 40 0 0 0 0 - - -;
#X obj 564 268 dac~;
#X obj 573 185 osc~;
#X floatatom 681 40 0 0 0 0 - - -;
#X obj 676 116 sig~;
#X obj 671 248 dac~;
#N canvas 0 50 450 250 (subpatch) 0;
#X array sigOut1 200 float 2;
#X coords 0 100 200 -100 200 200 1 0 0;
#X restore 168 95 graph;
#N canvas 0 50 450 250 (subpatch) 0;
#X array oscOut1 200 float 2;
#X coords 0 1 200 -1 200 200 1 0 0;
#X restore 170 338 graph;
#N canvas 0 50 1484 809 (subpatch) 0;
#X array sigOut2 200 float 2;
#X coords 0 100 200 -100 200 200 1 0 0;
#X restore 879 113 graph;
#N canvas 0 50 450 250 (subpatch) 0;
#X array oscOut2 200 float 2;
#X coords 0 1 200 -1 200 200 1 0 0;
#X restore 878 343 graph;
#X obj 736 155 tabwrite~ sigOut2;
#X obj 725 335 tabwrite~ oscOut2;
#X obj 443 294 tabwrite~ oscOut1, f 18;
#X obj 396 333 tabwrite~ sigOut1, f 18;
#X obj 597 428 metro 100, f 17;
#X obj 597 398 r kickit;
#X msg 559 574 \; pd dsp 1 \; kickit 1 \;;
#X msg 667 574 \; pd dsp 0 \; kickit 0 \;;
#X msg 529 80 stop;
#X msg 639 83 stop;
#X obj 407 56 adc~;
#X obj 416 123 phasor~;
#X msg 528 51 bang;
#X msg 639 48 bang;
#X obj 572 120 cos~;
#X obj 534 219 *~;
#X connect 0 0 1 0;
#X connect 1 0 3 0;
#X connect 1 0 17 0;
#X connect 3 0 16 0;
#X connect 3 0 29 0;
#X connect 4 0 28 0;
#X connect 6 0 15 0;
#X connect 6 0 29 1;
#X connect 7 0 8 0;
#X connect 8 0 9 0;
#X connect 8 0 9 1;
#X connect 18 0 17 0;
#X connect 18 0 16 0;
#X connect 18 0 15 0;
#X connect 18 0 14 0;
#X connect 19 0 18 0;
#X connect 22 0 3 0;
#X connect 23 0 6 0;
#X connect 26 0 3 0;
#X connect 27 0 6 0;
#X connect 28 0 6 0;
#X connect 28 0 14 0;
#X connect 29 0 2 1;
#X connect 29 0 2 0;
