#N canvas 454 110 1024 813 12;
#X obj 721 607 print;
#X obj 831 549 bng 15 250 50 0 empty empty empty 17 7 0 10 -262144
-1 -1;
#X msg 721 580 Hello World!;
#X msg 721 550 bang;
#X obj 307 512 print;
#X floatatom 306 687 0 0 0 0 - - -;
#X floatatom 306 615 0 0 0 0 - - -;
#X obj 306 591 receive another-receiver;
#X obj 539 608 print;
#X msg 539 548 60 64;
#X msg 539 578 pitch \$1 \, velocity \$2;
#X obj 831 598 print;
#X msg 831 571 Hello World!;
#X obj 306 663 receive my-first-receiver;
#X floatatom 187 489 5 0 0 0 - - -;
#X obj 187 514 send help-rcv1;
#X obj 187 450 bng 15 250 50 0 empty empty empty 17 7 0 10 -262144
-1 -1;
#X obj 37 438 bng 15 250 50 0 empty empty empty 17 7 0 10 -262144 -1
-1;
#X symbolatom 26 489 20 0 0 0 - - -;
#X obj 26 513 send symbol-receiver;
#X obj 29 584 receive symbol-receiver;
#X symbolatom 29 612 20 0 0 0 - - -;
#X obj 593 108 send;
#X msg 634 14 symbol help-send1;
#X msg 659 45 symbol help-send2;
#X floatatom 592 23 3 0 0 0 - - -;
#X symbolatom 618 78 10 0 0 0 - - -;
#X obj 548 175 send help-send1;
#X obj 694 176 send help-send1;
#X obj 843 176 send help-send2;
#X obj 550 205 receive help-send1;
#X obj 695 206 receive help-send2;
#X obj 846 207 receive help-send2;
#X floatatom 548 143 5 0 0 0 - - -;
#X floatatom 694 153 5 0 0 0 - - -;
#X floatatom 844 152 5 0 0 0 - - -;
#X floatatom 550 229 5 0 0 0 - - -;
#X floatatom 695 232 5 0 0 0 - - -;
#X floatatom 846 231 5 0 0 0 - - -;
#X obj 631 383 value y;
#X obj 568 385 send y;
#X floatatom 568 356 5 0 0 0 - - -;
#X obj 630 334 bng 15 250 50 0 empty empty empty 17 7 0 10 -262144
-1 -1;
#X floatatom 631 416 5 0 0 0 - - -;
#X floatatom 700 415 5 0 0 0 - - -;
#X obj 700 382 r y;
#X floatatom 655 346 5 0 0 0 - - -;
#X msg 657 297 1;
#X msg 532 356 1;
#X msg 307 421 123 \; my-first-receiver 333 \; another-receiver 111
\;;
#X obj 306 639 print;
#X obj 306 713 print;
#X msg 23 408 123 \;;
#X obj 105 276 bng 15 250 50 0 empty empty empty 17 7 0 10 -262144
-1 -1;
#X symbolatom 107 328 20 0 0 0 - - -;
#X obj 107 351 send symbol-receiver;
#X connect 1 0 12 0;
#X connect 2 0 0 0;
#X connect 3 0 2 0;
#X connect 5 0 51 0;
#X connect 6 0 50 0;
#X connect 7 0 6 0;
#X connect 9 0 10 0;
#X connect 10 0 8 0;
#X connect 12 0 11 0;
#X connect 13 0 5 0;
#X connect 14 0 15 0;
#X connect 16 0 14 0;
#X connect 17 0 18 0;
#X connect 18 0 19 0;
#X connect 20 0 21 0;
#X connect 23 0 26 0;
#X connect 24 0 26 0;
#X connect 25 0 22 0;
#X connect 26 0 22 1;
#X connect 30 0 36 0;
#X connect 31 0 37 0;
#X connect 32 0 38 0;
#X connect 33 0 27 0;
#X connect 34 0 28 0;
#X connect 35 0 29 0;
#X connect 39 0 43 0;
#X connect 41 0 40 0;
#X connect 42 0 39 0;
#X connect 45 0 44 0;
#X connect 46 0 39 0;
#X connect 47 0 39 0;
#X connect 48 0 40 0;
#X connect 49 0 4 0;
#X connect 52 0 19 0;
#X connect 53 0 54 0;
#X connect 54 0 55 0;
