#N canvas -8 -8 1920 1007 12;
#X obj 893 14 cnv 15 320 180 empty empty X:Midi:Drum:Sequence 20 26
0 24 -4034 -4160 0;
#X text 1030 78 <= Click to start;
#X text 1033 142 <= Click to stop;
#X obj 126 258 hradio 15 1 0 16 empty empty empty 0 -8 0 10 -262144
-1 -1 6;
#N canvas 1413 417 391 446 myModPeriodCounter 0;
#X obj 75 42 inlet;
#X obj 75 330 outlet;
#X obj 224 42 inlet;
#X obj 75 200 metro 250;
#X obj 107 232 + 1;
#X obj 75 304 mod 16;
#X obj 130 42 inlet;
#X text 47 23 BANG/STOP;
#X text 130 23 steps;
#X obj 219 308 outlet;
#X text 200 328 complete count;
#X text 182 23 period [ms];
#X obj 214 145 i;
#X floatatom 267 186 5 0 0 0 - - -;
#X floatatom 102 134 5 0 0 0 - - -;
#X obj 75 232 i;
#X obj 182 214 t b f;
#X obj 182 91 t b f;
#X obj 130 91 t f b;
#X text 91 350 mod count;
#X floatatom 121 331 5 0 0 0 - - -;
#X floatatom 265 309 5 0 0 0 - - -;
#X floatatom 75 169 5 0 0 0 - - -;
#X connect 0 0 22 0;
#X connect 2 0 17 0;
#X connect 3 0 15 0;
#X connect 4 0 15 1;
#X connect 5 0 1 0;
#X connect 5 0 20 0;
#X connect 6 0 18 0;
#X connect 12 0 3 1;
#X connect 12 0 13 0;
#X connect 15 0 4 0;
#X connect 15 0 5 0;
#X connect 15 0 9 0;
#X connect 15 0 21 0;
#X connect 16 0 5 0;
#X connect 16 1 5 1;
#X connect 17 0 16 0;
#X connect 17 0 22 0;
#X connect 17 1 12 0;
#X connect 18 0 16 0;
#X connect 18 0 14 0;
#X connect 18 1 12 0;
#X connect 18 1 22 0;
#X connect 22 0 3 0;
#X restore 126 234 pd myModPeriodCounter;
#N canvas 1185 59 693 760 myBmpToMilisecond 0;
#X obj 231 166 vradio 20 1 1 4 empty empty empty 0 -8 0 10 -262144
-1 -1 1;
#X obj 150 282 t b f;
#X obj 199 138 t b f;
#X floatatom 169 428 5 0 0 0 - - -;
#X floatatom 150 374 5 0 0 0 - - -;
#X obj 231 254 sel 0 1 2 3;
#X msg 150 305 60000;
#X obj 150 328 /;
#X obj 150 351 i;
#X msg 255 338 1;
#X msg 268 361 1.5;
#X msg 243 315 0.5;
#X msg 231 292 0.25;
#X obj 169 404 *;
#X obj 169 451 outlet;
#X obj 150 94 inlet;
#X obj 302 94 inlet;
#X obj 150 259 i;
#X text 164 77 BPM;
#X text 330 187 1/8;
#X text 323 168 1/16;
#X text 302 207 quarter;
#X text 253 228 dotted quarter;
#X text 366 298 1/16;
#X text 373 319 1/8;
#X text 345 340 quarter;
#X text 296 361 dotted quarter;
#X text 113 473 Result (in ms);
#X text 211 77 Note value (in ms);
#X connect 0 0 5 0;
#X connect 1 0 6 0;
#X connect 1 1 7 1;
#X connect 2 0 17 0;
#X connect 2 1 0 0;
#X connect 3 0 14 0;
#X connect 4 0 13 0;
#X connect 5 0 12 0;
#X connect 5 1 11 0;
#X connect 5 2 9 0;
#X connect 5 3 10 0;
#X connect 6 0 7 0;
#X connect 7 0 8 0;
#X connect 8 0 4 0;
#X connect 9 0 13 1;
#X connect 10 0 13 1;
#X connect 11 0 13 1;
#X connect 12 0 13 1;
#X connect 13 0 3 0;
#X connect 15 0 17 0;
#X connect 16 0 2 0;
#X connect 17 0 1 0;
#X restore 307 207 pd myBmpToMilisecond;
#X obj 198 38 hradio 30 1 1 16 empty empty Number_of_Steps 0 -12 0
16 -262144 -1 -4160 15;
#X obj 658 113 vradio 20 1 1 4 empty empty Sequence_of -80 -16 1 16
-262144 -33289 -99865 1;
#X obj 307 134 nbx 4 30 -1e+037 1e+037 0 1 empty empty BPM 0 -18 0
30 -262144 -1 -1 230 256;
#X floatatom 307 233 5 0 0 0 - - -;
#X text 614 114 1/16s;
#X text 621 135 1/8s;
#X text 593 155 quarters;
#X text 544 175 dotted quarters;
#X obj 1562 896 f;
#X obj 1635 1078 print Rx1;
#X obj 1635 1097 print Rx2;
#X floatatom 386 740 0 0 0 0 - - -;
#X floatatom 437 740 0 0 0 0 - - -;
#X floatatom 1588 896 0 0 0 0 - - -;
#X floatatom 1615 896 0 0 0 0 - - -;
#X obj 1562 1018 makenote;
#X obj 1562 870 t b f;
#X text 524 611 trigger point;
#X floatatom 216 158 5 0 0 0 - - -;
#X floatatom 658 210 5 0 0 0 - - -;
#X obj 198 116 + 1;
#X obj 776 335 tgl 15 1 empty empty empty 17 7 0 10 -262144 -1 -1 1
1;
#X obj 795 335 tgl 15 1 empty empty empty 17 7 0 10 -262144 -1 -1 1
1;
#X obj 814 335 tgl 15 1 empty empty empty 17 7 0 10 -262144 -1 -1 0
1;
#X obj 833 335 tgl 15 1 empty empty empty 17 7 0 10 -262144 -1 -1 1
1;
#X obj 896 335 tgl 15 1 empty empty empty 17 7 0 10 -262144 -1 -1 1
1;
#X obj 915 335 tgl 15 1 empty empty empty 17 7 0 10 -262144 -1 -1 0
1;
#X obj 934 335 tgl 15 1 empty empty empty 17 7 0 10 -262144 -1 -1 1
1;
#X obj 953 335 tgl 15 0 empty empty empty 17 7 0 10 -262144 -1 -1 1
1;
#X obj 1016 335 tgl 15 0 empty empty empty 17 7 0 10 -262144 -1 -1
0 1;
#X obj 1035 335 tgl 15 0 empty empty empty 17 7 0 10 -262144 -1 -1
1 1;
#X obj 1054 335 tgl 15 0 empty empty empty 17 7 0 10 -262144 -1 -1
0 1;
#X obj 1073 335 tgl 15 0 empty empty empty 17 7 0 10 -262144 -1 -1
1 1;
#X obj 1136 335 tgl 15 0 empty empty empty 17 7 0 10 -262144 -1 -1
0 1;
#X obj 1155 335 tgl 15 0 empty empty empty 17 7 0 10 -262144 -1 -1
1 1;
#X obj 1174 335 tgl 15 0 empty empty empty 17 7 0 10 -262144 -1 -1
1 1;
#X obj 1442 527 f;
#X obj 1442 396 vsl 15 128 0 127 0 1 empty empty empty 0 -9 0 10 -262144
-1 -1 4100 1;
#X obj 196 380 sel 0 1 2 3 4 5 6 7 8 9 10 11 12 13 14 15;
#X floatatom 1420 376 5 0 0 0 - - -;
#X obj 1194 335 tgl 15 0 empty empty empty 17 7 0 10 -262144 -1 -1
0 1;
#X floatatom 1442 554 5 0 0 0 - - -;
#X floatatom 130 353 5 0 0 0 - - -;
#X obj 330 513 *;
#X floatatom 608 456 5 0 0 0 - - -;
#X floatatom 571 456 5 0 0 0 - - -;
#X floatatom 344 543 5 0 0 0 - - -;
#X floatatom 456 456 5 0 0 0 - - -;
#X floatatom 419 456 5 0 0 0 - - -;
#X floatatom 497 456 5 0 0 0 - - -;
#X floatatom 534 456 5 0 0 0 - - -;
#X floatatom 939 1925 5 0 0 0 - - -;
#X floatatom 697 1924 5 0 0 0 - - -;
#X text 90 169 trigger point;
#X text 307 68 4;
#X text 427 68 8;
#X text 540 68 12;
#X text 660 68 16;
#X obj 196 291 i;
#X obj 126 292 i;
#X floatatom 126 316 5 0 0 0 - - -;
#X obj 133 416 i;
#X obj 158 416 i;
#X obj 183 416 i;
#X obj 208 416 i;
#X obj 264 416 i;
#X obj 289 416 i;
#X obj 314 416 i;
#X obj 345 416 i;
#X obj 370 416 i;
#X obj 395 416 i;
#X obj 420 416 i;
#X obj 451 416 i;
#X obj 476 416 i;
#X obj 501 416 i;
#X obj 526 416 i;
#X obj 239 416 i;
#X obj 130 379 bng 15 250 50 0 empty empty empty 17 7 0 10 -262144
-1 -1;
#X obj 161 379 bng 15 250 50 0 empty empty empty 17 7 0 10 -262144
-1 -1;
#X msg 1615 870 75;
#X obj 741 533 f;
#X obj 759 396 vsl 15 128 0 127 0 0 empty empty empty 0 -9 0 10 -262144
-1 -1 11300 1;
#X obj 766 533 f;
#X obj 784 396 vsl 15 128 0 127 0 0 empty empty empty 0 -9 0 10 -262144
-1 -1 6300 1;
#X obj 791 533 f;
#X obj 809 396 vsl 15 128 0 127 0 0 empty empty empty 0 -9 0 10 -262144
-1 -1 6600 1;
#X obj 816 533 f;
#X obj 834 396 vsl 15 128 0 127 0 0 empty empty empty 0 -9 0 10 -262144
-1 -1 6400 1;
#X obj 861 533 f;
#X obj 879 396 vsl 15 128 0 127 0 0 empty empty empty 0 -9 0 10 -262144
-1 -1 11100 1;
#X obj 886 533 f;
#X obj 904 396 vsl 15 128 0 127 0 0 empty empty empty 0 -9 0 10 -262144
-1 -1 6200 1;
#X obj 911 533 f;
#X obj 929 396 vsl 15 128 0 127 0 0 empty empty empty 0 -9 0 10 -262144
-1 -1 6200 1;
#X obj 936 533 f;
#X obj 954 396 vsl 15 128 0 127 0 0 empty empty empty 0 -9 0 10 -262144
-1 -1 6100 1;
#X obj 981 533 f;
#X obj 999 396 vsl 15 128 0 127 0 0 empty empty empty 0 -9 0 10 -262144
-1 -1 10900 1;
#X obj 1006 533 f;
#X obj 1024 396 vsl 15 128 0 127 0 0 empty empty empty 0 -9 0 10 -262144
-1 -1 6000 1;
#X obj 1031 533 f;
#X obj 1049 396 vsl 15 128 0 127 0 0 empty empty empty 0 -9 0 10 -262144
-1 -1 6000 1;
#X obj 1056 533 f;
#X obj 1074 396 vsl 15 128 0 127 0 0 empty empty empty 0 -9 0 10 -262144
-1 -1 6000 1;
#X obj 1101 533 f;
#X obj 1119 396 vsl 15 128 0 127 0 0 empty empty empty 0 -9 0 10 -262144
-1 -1 11500 1;
#X obj 1126 533 f;
#X obj 1144 396 vsl 15 128 0 127 0 0 empty empty empty 0 -9 0 10 -262144
-1 -1 6100 1;
#X obj 1151 533 f;
#X obj 1169 396 vsl 15 128 0 127 0 0 empty empty empty 0 -9 0 10 -262144
-1 -1 6100 1;
#X obj 1176 533 f;
#X obj 1194 396 vsl 15 128 0 127 0 0 empty empty empty 0 -9 0 10 -262144
-1 -1 6000 1;
#X obj 741 729 f;
#X obj 759 592 vsl 15 128 0 127 0 0 empty empty empty 0 -9 0 10 -262144
-1 -1 0 1;
#X obj 766 729 f;
#X obj 784 592 vsl 15 128 0 127 0 0 empty empty empty 0 -9 0 10 -262144
-1 -1 0 1;
#X obj 791 729 f;
#X obj 809 592 vsl 15 128 0 127 0 0 empty empty empty 0 -9 0 10 -262144
-1 -1 0 1;
#X obj 816 729 f;
#X obj 834 592 vsl 15 128 0 127 0 0 empty empty empty 0 -9 0 10 -262144
-1 -1 0 1;
#X obj 861 729 f;
#X obj 879 592 vsl 15 128 0 127 0 0 empty empty empty 0 -9 0 10 -262144
-1 -1 0 1;
#X obj 886 729 f;
#X obj 904 592 vsl 15 128 0 127 0 0 empty empty empty 0 -9 0 10 -262144
-1 -1 0 1;
#X obj 911 729 f;
#X obj 929 592 vsl 15 128 0 127 0 0 empty empty empty 0 -9 0 10 -262144
-1 -1 0 1;
#X obj 936 729 f;
#X obj 954 592 vsl 15 128 0 127 0 0 empty empty empty 0 -9 0 10 -262144
-1 -1 0 1;
#X obj 981 729 f;
#X obj 999 592 vsl 15 128 0 127 0 0 empty empty empty 0 -9 0 10 -262144
-1 -1 0 1;
#X obj 1006 729 f;
#X obj 1024 592 vsl 15 128 0 127 0 0 empty empty empty 0 -9 0 10 -262144
-1 -1 0 1;
#X obj 1031 729 f;
#X obj 1049 592 vsl 15 128 0 127 0 0 empty empty empty 0 -9 0 10 -262144
-1 -1 0 1;
#X obj 1056 729 f;
#X obj 1074 592 vsl 15 128 0 127 0 0 empty empty empty 0 -9 0 10 -262144
-1 -1 0 1;
#X obj 1101 729 f;
#X obj 1119 592 vsl 15 128 0 127 0 0 empty empty empty 0 -9 0 10 -262144
-1 -1 0 1;
#X obj 1126 729 f;
#X obj 1144 592 vsl 15 128 0 127 0 0 empty empty empty 0 -9 0 10 -262144
-1 -1 0 1;
#X obj 1151 729 f;
#X obj 1169 592 vsl 15 128 0 127 0 0 empty empty empty 0 -9 0 10 -262144
-1 -1 0 1;
#X obj 1176 729 f;
#X obj 1194 592 vsl 15 128 0 127 0 0 empty empty empty 0 -9 0 10 -262144
-1 -1 0 1;
#X text 1072 573 step DELAY back/fwd;
#X text 1114 377 step VELOCITY;
#X text 1128 318 STEP ON/OFF;
#X text 445 801 drums channel;
#X msg 912 65 \; pd dsp 1 \; kickThatHihat 1 \;;
#X msg 912 127 \; pd dsp 0 \; kickThatHihat 0 \;;
#X obj 76 187 r kickThatHihat;
#X obj 510 629 r kickThatHihat;
#X obj 1562 1171 noteout;
#X floatatom 160 809 5 0 0 0 - - -;
#X floatatom 160 833 5 0 0 0 - - -;
#X floatatom 382 456 5 0 0 0 - - -;
#X floatatom 345 456 5 0 0 0 - - -;
#X floatatom 304 456 5 0 0 0 - - -;
#X floatatom 267 456 5 0 0 0 - - -;
#X floatatom 152 456 5 0 0 0 - - -;
#X floatatom 115 456 5 0 0 0 - - -;
#X floatatom 193 456 5 0 0 0 - - -;
#X floatatom 230 456 5 0 0 0 - - -;
#X floatatom 78 456 5 0 0 0 - - -;
#X floatatom 41 456 5 0 0 0 - - -;
#X floatatom 503 783 5 0 0 0 - - -;
#X text 1287 359 Drum's Midi OUTPUT CODE;
#X msg 577 678 3;
#X msg 616 686 5;
#X obj 335 867 noteout;
#X msg 539 674 1;
#X obj 570 547 + 1;
#X floatatom 1617 1132 5 0 0 0 - - -;
#X floatatom 1124 1035 0 0 0 0 - - -;
#X floatatom 1067 1011 0 0 0 0 - - -;
#X msg 1019 899 60;
#X floatatom 1066 887 0 0 0 0 - - -;
#X msg 1079 916 60.5;
#X text 1099 889 numbers at left are "pitches" which may be integers
or not.;
#X text 1097 1013 "velocity";
#X text 1159 1038 duration in milliseconds;
#X obj 1057 1075 makenote 3.2 500;
#X text 1183 1075 creation arguments initialize velocity and duration
;
#X obj 1155 1170 stripnote;
#X text 1050 1141 updated for Pd version 0.33;
#X text 1076 1170 see also:;
#X obj 1032 982 t f b b;
#X msg 386 716 50;
#X floatatom 162 730 0 0 0 0 - - -;
#X obj 1057 1108 print x11;
#X obj 1166 1108 print x12;
#X obj 335 692 i;
#X obj 312 667 sel 0 1;
#X obj 162 754 print y;
#X obj 312 617 t f f;
#X obj 312 642 >= 1;
#X obj 160 857 print [makenote left];
#X obj 160 882 print [makenote right];
#X msg 437 716 200;
#X obj 344 568 print [new note] --------------------------- [note +
1];
#X obj 312 592 i;
#X obj 335 769 makenote 64 333;
#X obj 262 553 delay 50;
#X obj 728 590 i;
#X text 658 609 step VELOCITY;
#X floatatom 1755 860 5 0 0 0 - - -;
#X obj 1686 688 env~;
#X obj 463 310 sel 0 1 2 3 4 5 6 7 8 9 10 11 12 13 14 15;
#X floatatom 1732 383 5 0 0 0 - - -;
#X floatatom 1691 383 5 0 0 0 - - -;
#X floatatom 1836 512 5 0 0 0 - - -;
#X floatatom 1774 383 5 0 0 0 - - -;
#X floatatom 1795 512 5 0 0 0 - - -;
#X floatatom 1735 481 5 0 0 0 - - -;
#X floatatom 1735 509 5 0 0 0 - - -;
#X floatatom 1694 481 5 0 0 0 - - -;
#X floatatom 1694 509 5 0 0 0 - - -;
#X obj 1671 635 print x1;
#X obj 1679 588 print;
#X obj 1668 425 print x1;
#X obj 1732 425 print x2;
#X obj 1796 425 print x3;
#X obj 1800 480 i;
#X floatatom 1752 588 6 0 0 0 - - -;
#X msg 1763 682 11;
#X text 1777 639 trigger point;
#X obj 1763 657 r kickThatHihat;
#X obj 1810 602 print x2;
#X obj 1810 583 print x3;
#X floatatom 1695 546 5 0 0 0 - - -;
#X obj 1670 764 *;
#X obj 1695 764 *;
#X obj 1720 764 *;
#X obj 1745 764 *;
#X obj 1773 764 *;
#X obj 1798 764 *;
#X obj 1823 764 *;
#X obj 1848 764 *;
#X obj 1671 820 *;
#X obj 1696 820 *;
#X obj 1721 820 *;
#X obj 1746 820 *;
#X obj 1774 820 *;
#X obj 1799 820 *;
#X obj 1824 820 *;
#X obj 1681 356 print X == 0 results:;
#X floatatom 1874 860 5 0 0 0 - - -;
#X floatatom 1840 859 0 0 0 0 - - -;
#X floatatom 1809 858 0 0 0 0 - - -;
#X obj 1797 1024 pack 0 0 0;
#X obj 1867 980 bng 15 250 50 0 empty empty empty 17 7 0 10 -262144
-1 -1;
#X floatatom 1830 952 0 0 0 0 - - -;
#X obj 1839 980 bng 15 250 50 0 empty empty empty 17 7 0 10 -262144
-1 -1;
#X obj 1810 980 bng 15 250 50 0 empty empty empty 17 7 0 10 -262144
-1 -1;
#X floatatom 1797 951 0 0 0 0 - - -;
#X obj 1797 1050 unpack 0 0 0;
#X obj 1830 924 i;
#X obj 1797 897 t f b;
#X obj 1844 549 == 0;
#X obj 1728 735 print true/flase:;
#X obj 1739 890 == 0;
#X obj 1739 945 sel 0 1;
#X obj 1739 983 bng 15 250 50 0 empty empty empty 17 7 0 10 -262144
-1 -1;
#X obj 1727 859 bng 15 250 50 0 empty empty empty 17 7 0 10 -262144
-1 -1;
#X obj 1383 396 vsl 15 128 0 127 0 1 empty empty empty 0 -9 0 10 -262144
-1 -1 7600 1;
#X msg 503 670 10;
#X text 1282 377 general VELOCITY;
#X connect 3 0 65 0;
#X connect 3 0 64 0;
#X connect 4 0 3 0;
#X connect 5 0 4 2;
#X connect 5 0 9 0;
#X connect 6 0 26 0;
#X connect 7 0 5 1;
#X connect 7 0 25 0;
#X connect 8 0 5 0;
#X connect 9 0 18 0;
#X connect 14 0 21 0;
#X connect 17 0 207 1;
#X connect 18 0 207 2;
#X connect 19 0 21 1;
#X connect 20 0 21 2;
#X connect 21 0 158 0;
#X connect 21 1 158 1;
#X connect 22 0 14 0;
#X connect 22 1 14 1;
#X connect 26 0 4 1;
#X connect 26 0 24 0;
#X connect 27 0 67 1;
#X connect 28 0 68 1;
#X connect 29 0 69 1;
#X connect 30 0 70 1;
#X connect 31 0 82 1;
#X connect 32 0 71 1;
#X connect 33 0 72 1;
#X connect 34 0 73 1;
#X connect 35 0 74 1;
#X connect 36 0 75 1;
#X connect 37 0 76 1;
#X connect 38 0 77 1;
#X connect 39 0 78 1;
#X connect 40 0 79 1;
#X connect 41 0 80 1;
#X connect 42 0 47 0;
#X connect 42 0 177 0;
#X connect 43 0 42 0;
#X connect 44 0 67 0;
#X connect 44 1 68 0;
#X connect 44 2 69 0;
#X connect 44 3 70 0;
#X connect 44 4 82 0;
#X connect 44 5 71 0;
#X connect 44 6 72 0;
#X connect 44 7 73 0;
#X connect 44 8 74 0;
#X connect 44 9 75 0;
#X connect 44 10 76 0;
#X connect 44 11 77 0;
#X connect 44 12 78 0;
#X connect 44 13 79 0;
#X connect 44 14 80 0;
#X connect 44 15 81 0;
#X connect 45 0 43 0;
#X connect 46 0 81 1;
#X connect 48 0 83 0;
#X connect 49 0 52 0;
#X connect 49 0 205 0;
#X connect 49 0 206 1;
#X connect 49 0 208 0;
#X connect 64 0 44 0;
#X connect 64 0 48 0;
#X connect 64 0 84 0;
#X connect 64 0 213 0;
#X connect 65 0 66 0;
#X connect 67 0 170 0;
#X connect 67 0 49 0;
#X connect 68 0 169 0;
#X connect 68 0 49 0;
#X connect 69 0 166 0;
#X connect 69 0 49 0;
#X connect 70 0 165 0;
#X connect 70 0 49 0;
#X connect 71 0 49 0;
#X connect 71 0 168 0;
#X connect 72 0 49 0;
#X connect 72 0 164 0;
#X connect 73 0 49 0;
#X connect 73 0 163 0;
#X connect 74 0 49 0;
#X connect 74 0 162 0;
#X connect 75 0 49 0;
#X connect 75 0 161 0;
#X connect 76 0 49 0;
#X connect 76 0 54 0;
#X connect 77 0 49 0;
#X connect 77 0 53 0;
#X connect 78 0 49 0;
#X connect 78 0 55 0;
#X connect 79 0 56 0;
#X connect 79 0 49 0;
#X connect 80 0 51 0;
#X connect 80 0 49 0;
#X connect 81 0 49 0;
#X connect 81 0 50 0;
#X connect 82 0 49 0;
#X connect 82 0 167 0;
#X connect 85 0 19 0;
#X connect 85 0 20 0;
#X connect 86 0 209 1;
#X connect 87 0 86 1;
#X connect 88 0 209 1;
#X connect 89 0 88 1;
#X connect 90 0 209 1;
#X connect 91 0 90 1;
#X connect 92 0 209 1;
#X connect 93 0 92 1;
#X connect 94 0 209 1;
#X connect 95 0 94 1;
#X connect 96 0 209 1;
#X connect 97 0 96 1;
#X connect 98 0 209 1;
#X connect 99 0 98 1;
#X connect 100 0 209 1;
#X connect 101 0 100 1;
#X connect 102 0 209 1;
#X connect 103 0 102 1;
#X connect 104 0 209 1;
#X connect 105 0 104 1;
#X connect 106 0 209 1;
#X connect 107 0 106 1;
#X connect 108 0 209 1;
#X connect 109 0 108 1;
#X connect 110 0 209 1;
#X connect 111 0 110 1;
#X connect 112 0 209 1;
#X connect 113 0 112 1;
#X connect 114 0 209 1;
#X connect 115 0 114 1;
#X connect 116 0 209 1;
#X connect 117 0 116 1;
#X connect 119 0 118 1;
#X connect 121 0 120 1;
#X connect 123 0 122 1;
#X connect 125 0 124 1;
#X connect 127 0 126 1;
#X connect 129 0 128 1;
#X connect 131 0 130 1;
#X connect 133 0 132 1;
#X connect 135 0 134 1;
#X connect 137 0 136 1;
#X connect 139 0 138 1;
#X connect 141 0 140 1;
#X connect 143 0 142 1;
#X connect 145 0 144 1;
#X connect 147 0 146 1;
#X connect 149 0 148 1;
#X connect 156 0 4 0;
#X connect 157 0 204 0;
#X connect 157 0 176 0;
#X connect 157 0 193 0;
#X connect 171 0 175 2;
#X connect 173 0 171 0;
#X connect 174 0 171 0;
#X connect 176 0 171 0;
#X connect 177 0 49 1;
#X connect 179 0 187 2;
#X connect 180 0 187 1;
#X connect 181 0 192 0;
#X connect 182 0 192 0;
#X connect 183 0 192 0;
#X connect 187 0 195 0;
#X connect 187 1 196 0;
#X connect 192 0 187 0;
#X connect 192 1 180 0;
#X connect 192 2 179 0;
#X connect 193 0 17 0;
#X connect 197 0 199 0;
#X connect 197 0 194 0;
#X connect 197 0 207 0;
#X connect 198 1 197 0;
#X connect 200 0 201 0;
#X connect 200 1 197 1;
#X connect 201 0 198 0;
#X connect 204 0 18 0;
#X connect 206 0 200 0;
#X connect 207 0 175 0;
#X connect 207 0 159 0;
#X connect 207 0 202 0;
#X connect 207 1 175 1;
#X connect 207 1 160 0;
#X connect 207 1 203 0;
#X connect 208 0 206 0;
#X connect 208 0 209 0;
#X connect 209 0 17 0;
#X connect 213 0 86 0;
#X connect 213 1 88 0;
#X connect 213 2 90 0;
#X connect 213 3 92 0;
#X connect 213 4 94 0;
#X connect 213 5 96 0;
#X connect 213 6 98 0;
#X connect 213 7 100 0;
#X connect 213 8 102 0;
#X connect 213 9 104 0;
#X connect 213 10 106 0;
#X connect 213 11 108 0;
#X connect 213 12 110 0;
#X connect 213 13 112 0;
#X connect 213 14 114 0;
#X connect 213 15 116 0;
#X connect 214 0 226 0;
#X connect 215 0 225 0;
#X connect 217 0 227 0;
#X connect 232 0 230 0;
#X connect 255 0 261 0;
#X connect 257 0 258 0;
#X connect 257 0 255 1;
#X connect 260 0 259 0;
#X connect 260 0 255 0;
#X connect 262 0 257 0;
#X connect 263 0 260 0;
#X connect 263 1 262 0;
#X connect 266 0 267 0;
#X connect 267 0 268 0;
#X connect 270 0 87 0;
#X connect 270 0 89 0;
#X connect 270 0 91 0;
#X connect 270 0 93 0;
#X connect 270 0 95 0;
#X connect 270 0 97 0;
#X connect 270 0 99 0;
#X connect 270 0 101 0;
#X connect 270 0 103 0;
#X connect 270 0 105 0;
#X connect 270 0 107 0;
#X connect 270 0 109 0;
#X connect 270 0 111 0;
#X connect 270 0 113 0;
#X connect 270 0 115 0;
#X connect 270 0 117 0;
#X connect 271 0 171 0;
